# xmcd
#
# Track frame offsets:
#	150
#	5937
#	27502
#	45777
#	70430
#	95320
#	115637
#	137830
#	165142
#	191135
#	215390
#	235265
#
# Disc length: 3398 seconds
#
# Revision: 1
# Processed by: cddbd v1.5PL3 Copyright (c) Steve Scherf et al.
# Submitted via: CDex 1.50Beta5
#
DISCID=9c0d440c
DTITLE=Vlidge - Everybody Needs Love
DYEAR=1900
DGENRE=Blues
TTITLE0="YOU" bring me up 〜君がいるから〜
TTITLE1=Everybody Needs Love
TTITLE2=Diverge
TTITLE3=Can you hear me now?
TTITLE4=Dancing In The Rain
TTITLE5=WHATCHAGONNADO?
TTITLE6=Breaking The Ice
TTITLE7=You See...
TTITLE8=mr.roY
TTITLE9=FACE
TTITLE10=Now and Forever
TTITLE11=You See...
EXTD=
EXTT0=
EXTT1=
EXTT2=
EXTT3=
EXTT4=
EXTT5=
EXTT6=
EXTT7=
EXTT8=
EXTT9=
EXTT10=
EXTT11=
PLAYORDER=
